<svg width="36.447" height="36.447" xmlns="http://www.w3.org/2000/svg">

 <g>
  <title>background</title>
  <rect fill="none" id="canvas_background" height="602" width="802" y="-1" x="-1"/>
 </g>
 <g>
  <title>Layer 1</title>
  <g id="svg_1">
   <g id="svg_2">
    <path fill="#ffffff" id="svg_3" d="m30.224,3.948l-1.098,0l0,-1.198c0,-1.517 -1.197,-2.75 -2.67,-2.75c-1.474,0 -2.67,1.233 -2.67,2.75l0,1.197l-2.74,0l0,-1.197c0,-1.517 -1.197,-2.75 -2.67,-2.75c-1.473,0 -2.67,1.233 -2.67,2.75l0,1.197l-2.74,0l0,-1.197c0,-1.517 -1.197,-2.75 -2.67,-2.75c-1.473,0 -2.67,1.233 -2.67,2.75l0,1.197l-1.402,0c-2.343,0 -4.25,1.907 -4.25,4.25l0,24c0,2.343 1.907,4.25 4.25,4.25l24,0c2.344,0 4.25,-1.907 4.25,-4.25l0,-24c0,-2.342 -1.907,-4.249 -4.25,-4.249zm-4.938,-1.198c0,-0.689 0.525,-1.25 1.17,-1.25c0.646,0 1.17,0.561 1.17,1.25l0,4.896c0,0.689 -0.524,1.25 -1.17,1.25c-0.645,0 -1.17,-0.561 -1.17,-1.25l0,-4.896zm-8.08,0c0,-0.689 0.525,-1.25 1.17,-1.25s1.17,0.561 1.17,1.25l0,4.896c0,0.689 -0.525,1.25 -1.17,1.25s-1.17,-0.561 -1.17,-1.25l0,-4.896zm-8.081,0c0,-0.689 0.525,-1.25 1.17,-1.25s1.17,0.561 1.17,1.25l0,4.896c0,0.689 -0.525,1.25 -1.17,1.25s-1.17,-0.561 -1.17,-1.25l0,-4.896zm22.849,29.448c0,0.965 -0.785,1.75 -1.75,1.75l-24,0c-0.965,0 -1.75,-0.785 -1.75,-1.75l0,-22l27.5,0l0,22z"/>
    <rect fill="#ffffff" id="svg_4" height="4.089" width="4.595" y="14.626" x="6.724"/>
    <rect fill="#ffffff" id="svg_5" height="4.089" width="4.596" y="14.626" x="12.857"/>
    <rect fill="#ffffff" id="svg_6" height="4.089" width="4.595" y="14.626" x="18.995"/>
    <rect fill="#ffffff" id="svg_7" height="4.089" width="4.596" y="14.626" x="25.128"/>
    <rect fill="#ffffff" id="svg_8" height="4.086" width="4.595" y="20.084" x="6.724"/>
    <rect fill="#ffffff" id="svg_9" height="4.086" width="4.596" y="20.084" x="12.857"/>
    <rect fill="#ffffff" id="svg_10" height="4.086" width="4.595" y="20.084" x="18.995"/>
    <rect fill="#ffffff" id="svg_11" height="4.086" width="4.596" y="20.084" x="25.128"/>
    <rect fill="#ffffff" id="svg_12" height="4.086" width="4.595" y="25.54" x="6.724"/>
    <rect fill="#ffffff" id="svg_13" height="4.086" width="4.596" y="25.54" x="12.857"/>
    <rect fill="#ffffff" id="svg_14" height="4.086" width="4.595" y="25.54" x="18.995"/>
    <rect fill="#ffffff" id="svg_15" height="4.086" width="4.596" y="25.54" x="25.128"/>
   </g>
  </g>
  <g id="svg_16"/>
  <g id="svg_17"/>
  <g id="svg_18"/>
  <g id="svg_19"/>
  <g id="svg_20"/>
  <g id="svg_21"/>
  <g id="svg_22"/>
  <g id="svg_23"/>
  <g id="svg_24"/>
  <g id="svg_25"/>
  <g id="svg_26"/>
  <g id="svg_27"/>
  <g id="svg_28"/>
  <g id="svg_29"/>
  <g id="svg_30"/>
 </g>
</svg>