<svg width="24.000000000000004" height="24.000000000000004" xmlns="http://www.w3.org/2000/svg">

 <g>
  <title>background</title>
  <rect fill="none" id="canvas_background" height="602" width="802" y="-1" x="-1"/>
 </g>
 <g>
  <title>Layer 1</title>
  <path id="svg_1" fill="none" d="m0,0l24,0l0,24l-24,0l0,-24z"/>
  <path fill="#ffffff" id="svg_2" d="m20,4l-16,0c-1.1,0 -1.99,0.9 -1.99,2l-0.01,12c0,1.1 0.9,2 2,2l16,0c1.1,0 2,-0.9 2,-2l0,-12c0,-1.1 -0.9,-2 -2,-2zm0,4l-8,5l-8,-5l0,-2l8,5l8,-5l0,2z"/>
 </g>
</svg>