<svg width="512" height="512" xmlns="http://www.w3.org/2000/svg">

 <g>
  <title>background</title>
  <rect fill="none" id="canvas_background" height="602" width="802" y="-1" x="-1"/>
 </g>
 <g>
  <title>Layer 1</title>
  <g id="svg_1">
   <path fill="#ffffff" id="svg_2" d="m135,0c-8.284,0 -15,6.716 -15,15l0,45l-105,0c-8.284,0 -15,6.716 -15,15l0,422c0,8.284 6.716,15 15,15l120,0c8.284,0 15,-6.716 15,-15l0,-482c0,-8.284 -6.716,-15 -15,-15z"/>
   <path fill="#ffffff" id="svg_3" d="m256.71,181l180,0l0,59l-180,0l0,-59z"/>
   <path fill="#ffffff" id="svg_4" d="m497,90l-317,0l0,407c0,5.26 -0.91,10.31 -2.58,15l319.58,0c8.28,0 15,-6.72 15,-15l0,-392c0,-8.28 -6.72,-15 -15,-15zm-225.29,361l-30,0c-8.284,0 -15,-6.716 -15,-15s6.716,-15 15,-15l30,0c8.284,0 15,6.716 15,15s-6.716,15 -15,15zm0,-60l-30,0c-8.284,0 -15,-6.716 -15,-15s6.716,-15 15,-15l30,0c8.284,0 15,6.716 15,15s-6.716,15 -15,15zm0,-60l-30,0c-8.284,0 -15,-6.716 -15,-15s6.716,-15 15,-15l30,0c8.284,0 15,6.716 15,15s-6.716,15 -15,15zm90,120l-30,0c-8.284,0 -15,-6.716 -15,-15s6.716,-15 15,-15l30,0c8.284,0 15,6.716 15,15s-6.716,15 -15,15zm0,-60l-30,0c-8.284,0 -15,-6.716 -15,-15s6.716,-15 15,-15l30,0c8.284,0 15,6.716 15,15s-6.716,15 -15,15zm0,-60l-30,0c-8.284,0 -15,-6.716 -15,-15s6.716,-15 15,-15l30,0c8.284,0 15,6.716 15,15s-6.716,15 -15,15zm90,120l-30,0c-8.284,0 -15,-6.716 -15,-15s6.716,-15 15,-15l30,0c8.284,0 15,6.716 15,15s-6.716,15 -15,15zm0,-60l-30,0c-8.284,0 -15,-6.716 -15,-15s6.716,-15 15,-15l30,0c8.284,0 15,6.716 15,15s-6.716,15 -15,15zm0,-60l-30,0c-8.284,0 -15,-6.716 -15,-15s6.716,-15 15,-15l30,0c8.284,0 15,6.716 15,15s-6.716,15 -15,15zm15,-76c0,8.284 -6.716,15 -15,15l-210,0c-8.284,0 -15,-6.716 -15,-15l0,-89c0,-8.284 6.716,-15 15,-15l210,0c8.284,0 15,6.716 15,15l0,89z"/>
  </g>
 </g>
</svg>