<svg id="Capa_1" enable-background="new 0 0 512 512" height="512" viewBox="0 0 512 512" width="512" xmlns="http://www.w3.org/2000/svg"><g><path d="m135 0c-8.284 0-15 6.716-15 15v45h-105c-8.284 0-15 6.716-15 15v422c0 8.284 6.716 15 15 15h120c8.284 0 15-6.716 15-15v-482c0-8.284-6.716-15-15-15z"/><path d="m256.71 181h180v59h-180z"/><path d="m497 90h-317v407c0 5.26-.91 10.31-2.58 15h319.58c8.28 0 15-6.72 15-15v-392c0-8.28-6.72-15-15-15zm-225.29 361h-30c-8.284 0-15-6.716-15-15s6.716-15 15-15h30c8.284 0 15 6.716 15 15s-6.716 15-15 15zm0-60h-30c-8.284 0-15-6.716-15-15s6.716-15 15-15h30c8.284 0 15 6.716 15 15s-6.716 15-15 15zm0-60h-30c-8.284 0-15-6.716-15-15s6.716-15 15-15h30c8.284 0 15 6.716 15 15s-6.716 15-15 15zm90 120h-30c-8.284 0-15-6.716-15-15s6.716-15 15-15h30c8.284 0 15 6.716 15 15s-6.716 15-15 15zm0-60h-30c-8.284 0-15-6.716-15-15s6.716-15 15-15h30c8.284 0 15 6.716 15 15s-6.716 15-15 15zm0-60h-30c-8.284 0-15-6.716-15-15s6.716-15 15-15h30c8.284 0 15 6.716 15 15s-6.716 15-15 15zm90 120h-30c-8.284 0-15-6.716-15-15s6.716-15 15-15h30c8.284 0 15 6.716 15 15s-6.716 15-15 15zm0-60h-30c-8.284 0-15-6.716-15-15s6.716-15 15-15h30c8.284 0 15 6.716 15 15s-6.716 15-15 15zm0-60h-30c-8.284 0-15-6.716-15-15s6.716-15 15-15h30c8.284 0 15 6.716 15 15s-6.716 15-15 15zm15-76c0 8.284-6.716 15-15 15h-210c-8.284 0-15-6.716-15-15v-89c0-8.284 6.716-15 15-15h210c8.284 0 15 6.716 15 15z"/></g></svg>