<svg width="24.000000000000004" height="24.000000000000004" xmlns="http://www.w3.org/2000/svg">

 <g>
  <title>background</title>
  <rect fill="none" id="canvas_background" height="602" width="802" y="-1" x="-1"/>
 </g>
 <g>
  <title>Layer 1</title>
  <path id="svg_1" fill="none" d="m0,0l24,0l0,24l-24,0l0,-24z"/>
  <path fill="#ffffff" id="svg_2" d="m12,2c-5.52,0 -10,4.48 -10,10s4.48,10 10,10s10,-4.48 10,-10s-4.48,-10 -10,-10zm-1,17.93c-3.95,-0.49 -7,-3.85 -7,-7.93c0,-0.62 0.08,-1.21 0.21,-1.79l4.79,4.79l0,1c0,1.1 0.9,2 2,2l0,1.93zm6.9,-2.54c-0.26,-0.81 -1,-1.39 -1.9,-1.39l-1,0l0,-3c0,-0.55 -0.45,-1 -1,-1l-6,0l0,-2l2,0c0.55,0 1,-0.45 1,-1l0,-2l2,0c1.1,0 2,-0.9 2,-2l0,-0.41c2.93,1.19 5,4.06 5,7.41c0,2.08 -0.8,3.97 -2.1,5.39z"/>
 </g>
</svg>